<svg preserveAspectRatio="none" version="1.1"  xmlns="http://www.w3.org/2000/svg" xmlns:xlink="http://www.w3.org/1999/xlink" x="0px" y="0px"
	 viewBox="0 0 1000 700" style="enable-background:new 0 0 1000 700;" xml:space="preserve">
<g>
	<path d="M133.57,106.16c14.56,69.81,21.85,151.41,21.85,244.81c0,96.29-7.44,178.53-22.31,246.73C118.24,665.9,99.79,700,77.76,700
		c-21.48,0-39.8-34.1-54.99-102.3C7.59,529.5,0,447.25,0,350.96c0-96.6,7.44-179.01,22.31-247.21C37.18,35.55,55.66,1.44,77.76,1.44
		C100.4,1.44,119.01,36.35,133.57,106.16z M78.03,21.18c-13.58,0-24.41,30.57-32.49,91.72c-8.08,61.14-12.13,140.5-12.13,238.06
		c0,97.25,4.2,176.44,12.59,237.58c8.39,61.15,19.07,91.72,32.03,91.72c13.51,0,24.31-30.57,32.4-91.72
		c8.08-61.14,12.13-140.33,12.13-237.58c0-97.56-4.2-176.92-12.59-238.06C101.58,51.76,90.93,21.18,78.03,21.18z" fill="red"/>
	<path d="M249.84,0c13.95,0,24.58,13.64,31.89,40.92c7.31,27.28,12.11,40.92,14.39,40.92c4.01,0,9.44-23.59,16.29-70.77h3.42
		l2.59,322.08h-2.87c-6.54-110.4-15.47-190.56-26.8-240.48c-11.32-49.9-23.16-74.86-35.5-74.86c-13.39,0-22.85,28.97-28.37,86.9
		c-5.52,57.94-8.28,141.62-8.28,251.06c0,129.02,3.96,215.36,11.89,259.01c7.93,43.65,17.97,65.48,30.13,65.48
		c15.8,0,28.65-23.59,38.55-70.77c9.9-47.18,16.34-100.93,19.3-161.28h3.8c-2.65,62.91-9.29,120.6-19.9,173.08
		C289.76,673.76,275.32,700,257.06,700c-20.67,0-38.15-36.03-52.44-108.08c-14.29-72.05-21.43-153.34-21.43-243.85
		c0-93.07,6.93-174.35,20.78-243.85C217.82,34.75,233.11,0,249.84,0z" fill="red"/>
	<path d="M432.01,538.54c0,49.14,1.74,85.08,5.23,107.81c3.49,22.74,10.78,34.09,21.89,34.09h15.83V700H361.84v-19.56h15.83
		c11.11,0,18.4-11.36,21.89-34.09c3.49-22.73,5.23-58.67,5.23-107.81V18.55h-6.02c-16.35,0-29.02,35.1-38,105.3
		c-8.98,70.2-13.99,147.59-15.04,232.17h-3.43V0h152.18v356.02h-3.42c-1.05-84.57-6.06-161.97-15.04-232.17
		c-8.98-70.2-21.65-105.3-38-105.3h-6.02V538.54z" fill="red"/>
	<path d="M577.15,0h4.07l54.06,622.77c2.47,23.95,5.74,39.6,9.81,46.98s8.39,11.07,12.96,11.07V700H582.8v-19.19
		c10.67,0,17.32-3.69,19.95-11.07c2.62-7.38,3.93-18.94,3.93-34.68c-0.12-16.73-3.92-66.73-11.39-150.03h-53.87l-5.65,67.39
		c-0.62,8.53-0.93,21.98-0.93,40.34c0.56,30.18,2.58,52.39,6.06,66.66c3.49,14.26,7.67,21.39,12.54,21.39V700h-53.04v-19.19
		c15.06,0,28.2-77.55,39.43-232.68L577.15,0z M542.72,466.83h50.73L567.99,164.3L542.72,466.83z" fill="red"/>
	<path d="M773.4,0c15.61,0,27.58,16.63,35.92,49.89c8.33,33.27,12.5,73.8,12.5,121.6c0,46.8-5.12,84.41-15.37,112.82
		c-10.24,28.42-18.67,44.46-25.27,48.14c14.01,12.71,25.27,34.18,33.79,64.44c8.52,30.26,12.77,71.95,12.77,125.11
		c0,58.5-5.45,102.79-16.34,132.88C800.5,684.96,788.45,700,775.25,700H674.26v-19.56c11.11,0,18.4-11.36,21.89-34.09
		c3.49-22.73,5.23-58.67,5.23-107.81V161.46c0-49.14-1.74-85.07-5.23-107.81c-3.49-22.73-10.78-34.1-21.89-34.1V0H773.4z
		 M728.87,17.05v306.38h23.6c15.86,0,26.32-15.62,31.38-46.88c5.06-31.25,7.59-69.27,7.59-114.08c0-45.13-2.24-80.64-6.71-106.55
		c-4.48-25.9-13.56-38.86-27.26-38.86H728.87z M728.87,343.98v336.97h28.42c12.53,0,22.09-14.71,28.7-44.13
		c6.6-29.41,9.91-72.2,9.91-128.36c0-52.15-3.6-92.59-10.78-121.35c-7.19-28.74-18.38-43.12-33.56-43.12H728.87z" fill="red"/>
	<path d="M948.44,313.39c13.82,0,25.87,16.38,36.15,49.14c10.28,32.77,15.41,77.39,15.41,133.88v22.07
		c0,50.48-4.77,93.35-14.3,128.61c-9.54,35.27-25.57,52.9-48.09,52.9h-85.44v-19.56c11.11,0,18.41-11.36,21.89-34.09
		c3.49-22.73,5.23-58.67,5.23-107.81V161.46c0-49.14-1.74-85.07-5.23-107.81c-3.49-22.73-10.78-34.1-21.89-34.1V0h85.9v20.56
		c-14.5,0-23.45,11.2-26.84,33.59c-3.39,22.4-5.09,58.17-5.09,107.31v151.93H948.44z M930.21,681.45
		c14.81,0,25.04-14.46,30.69-43.37c5.65-28.92,8.47-67.61,8.47-116.08v-27.58c0-41.12-2.64-78.14-7.91-111.07
		c-5.28-32.92-16.8-49.39-34.57-49.39h-20.74v347.5H930.21z" fill="red"/>
</g>
</svg>
