<svg width="220" height="54" viewBox="0 0 220 54" fill="none" xmlns="http://www.w3.org/2000/svg">
<path d="M8.7125 11.4223L6.89028 30.1334H6.40139L5.42361 21.2445L3.9125 11.4223H0.3125L5.1125 34.4445H6.44583L1.5125 43.8667H5.69028L12.5792 11.4223H8.7125Z" fill="black"/>
<path d="M17.3337 24.3112H17.2448V14.3112H22.9337V11.4223H13.9115V43.8667H17.9115C21.7337 43.8667 23.9559 42.3112 23.9559 38.2667V30.3112C23.9559 25.9556 20.9337 24.3112 17.3337 24.3112ZM20.6226 37.1556C20.6226 40.0445 19.8226 40.8445 17.6003 40.8445H17.2448V27.3334H17.9115C20.0892 27.3334 20.6226 28.3112 20.6226 29.8667V37.1556Z" fill="black"/>
<path d="M31.0498 44.3112C27.9832 44.3112 26.2943 42.9334 26.2943 39.1112V16.9778C26.2943 12.6223 28.6943 10.9778 31.5832 10.9778C34.6943 10.9778 36.3387 12.3556 36.3387 16.1778V38.3112C36.3387 42.6667 33.9387 44.3112 31.0498 44.3112ZM31.272 14.0001C29.9387 14.0001 29.6276 14.9778 29.6276 16.5334V37.6001C29.6276 40.8001 30.5165 41.289 31.5832 41.289C32.7387 41.289 33.0054 40.3112 33.0054 38.7556V17.689C33.0054 14.489 32.1609 14.0001 31.272 14.0001Z" fill="black"/>
<path d="M42.9896 11.4223H38.9896V43.8667H42.3229V34.5334H42.4118C46.0118 34.5334 49.034 32.889 49.034 28.5334V17.0223C49.034 12.9778 46.8118 11.4223 42.9896 11.4223ZM45.7007 28.9778C45.7007 30.5334 45.1674 31.5112 42.9896 31.5112H42.3229V14.4445H42.6785C44.9007 14.4445 45.7007 15.2445 45.7007 18.1334V28.9778Z" fill="black"/>
<path d="M61.5071 14.6667L62.4849 14.4001V11.4223H58.4849L54.396 25.6001L53.9516 25.5112L55.0182 15.0223V11.4223H51.6849V43.8667H55.0182V29.1112C55.0182 28.489 55.0627 27.9112 55.1516 27.3334C56.396 27.1556 56.796 27.9112 57.2405 31.289L58.8849 43.8667H62.4849L59.5516 26.0445L55.6849 26.4001L55.3738 26.089C55.596 25.0667 55.996 23.9112 56.5293 22.489C58.2182 18.089 59.0627 15.3334 61.5071 14.6667Z" fill="black"/>
<path d="M71.762 43.8667H75.4953L70.0731 11.4223H65.6731L67.5842 15.9112L62.6953 43.8667H66.6953L67.2731 34.7556H70.6064L71.762 43.8667ZM67.362 33.8667L68.3398 18.5334H68.8286L69.6731 27.4223L70.4731 33.8667H67.362Z" fill="black"/>
<path d="M97.1432 15.3334C97.1432 14.3556 96.4321 14.0001 94.5655 14.0001C93.4099 14.0001 93.1432 14.9778 93.1432 16.5334V37.6001C93.1432 40.8001 94.0766 41.289 94.9655 41.289C96.121 41.289 96.5655 39.6001 96.6543 36.7556L96.7877 31.5112H97.4099L97.5432 36.889C97.6321 41.1112 96.3432 44.3112 93.6766 44.3112C91.1432 44.3112 89.8099 42.9334 89.8099 39.1112V16.9778C89.8099 12.6223 91.9877 10.9778 94.5655 10.9778C96.8766 10.9778 97.9877 12.3556 97.9877 15.1112C97.9877 17.3778 97.8988 20.489 97.0988 24.9778H93.721C96.8321 18.3112 97.1432 16.5778 97.1432 15.3334Z" fill="black"/>
<path d="M110.318 43.8667H113.74L113.295 11.4223H110.495L107.918 32.4445H107.429L103.873 11.4223H100.54L100.095 43.8667H103.607L102.407 20.6667H102.851L106.54 41.6445H107.562L110.407 20.6667H110.895L110.318 43.8667Z" fill="black"/>
<path d="M159.083 11.4223H155.083V43.8667H158.417V34.5334H158.506C162.106 34.5334 165.128 32.889 165.128 28.5334V17.0223C165.128 12.9778 162.906 11.4223 159.083 11.4223ZM161.794 28.9778C161.794 30.5334 161.261 31.5112 159.083 31.5112H158.417V14.4445H158.772C160.994 14.4445 161.794 15.2445 161.794 18.1334V28.9778Z" fill="black"/>
<path d="M176.727 11.4223H166.016V14.3112H169.705V43.8667H173.038V14.3112H176.727V11.4223Z" fill="black"/>
<path d="M185.398 11.4223V26.3556H181.62V11.4223H178.286V43.8667H181.62V27.2445H185.398V43.8667H188.731V11.4223H185.398Z" fill="black"/>
<path d="M194.834 22.9778H194.745V11.4223H191.411V43.8667H195.411C199.234 43.8667 201.456 42.3112 201.456 38.2667V28.9778C201.456 24.6223 198.434 22.9778 194.834 22.9778ZM203.234 11.4223V43.8667H206.567V11.4223H203.234ZM198.123 37.1556C198.123 40.0445 197.323 40.8445 195.1 40.8445H194.745V26.0001H195.411C197.589 26.0001 198.123 26.9778 198.123 28.5334V37.1556Z" fill="black"/>
<path d="M215.402 26.2223L219.58 11.4223H215.846L214.824 23.8223H214.335L213.268 18.089L211.802 11.4223H208.068L212.335 26.9334L207.891 43.8667H211.624L213.002 29.289H213.402L214.468 36.3556L215.935 43.8667H219.668L215.402 26.2223Z" fill="black"/>
<path d="M136.487 21.472C135.164 21.0026 133.905 20.192 132.711 19.04C131.345 19.3813 130.065 19.552 128.871 19.552C127.121 19.552 125.5 19.3386 124.007 18.912C122.513 18.4853 121.212 17.888 120.103 17.12C118.993 16.352 118.119 15.4133 117.479 14.304C116.839 13.152 116.519 11.872 116.519 10.464C116.519 8.84265 116.903 7.41331 117.671 6.17598C118.439 4.93865 119.42 3.89331 120.615 3.03998C121.809 2.18665 123.153 1.54665 124.647 1.11998C126.14 0.693314 127.612 0.47998 129.063 0.47998C131.196 0.47998 133.244 0.885314 135.207 1.69598C137.169 2.46398 138.961 3.50931 140.583 4.83198C142.204 4.06398 143.889 3.38131 145.639 2.78398C147.388 2.18665 149.201 1.88798 151.079 1.88798C152.231 1.88798 153.127 2.14398 153.767 2.65598C154.449 3.12531 154.791 3.95731 154.791 5.15198C154.791 6.13331 154.407 7.15731 153.639 8.22398C152.871 9.24798 151.889 10.2506 150.695 11.232C149.5 12.2133 148.156 13.1306 146.663 13.984C145.169 14.8373 143.697 15.6053 142.247 16.288C140.796 16.928 139.431 17.4613 138.151 17.888C136.871 18.272 135.847 18.4853 135.079 18.528C135.292 19.2533 135.612 19.8933 136.039 20.448C136.508 20.96 137.148 21.216 137.959 21.216C138.172 21.216 138.471 21.1733 138.855 21.088C139.281 21.0026 139.772 20.96 140.327 20.96C140.924 20.96 141.5 21.0666 142.055 21.28C142.609 21.4506 142.887 21.664 142.887 21.92C142.887 22.4746 142.396 22.752 141.415 22.752C140.305 22.752 139.495 22.624 138.983 22.368C138.471 22.112 138.023 21.984 137.639 21.984C136.359 21.984 134.823 22.3893 133.031 23.2C131.281 23.968 129.596 25.0986 127.975 26.592C126.396 28.0426 125.052 29.8346 123.943 31.968C122.833 34.0586 122.279 36.4053 122.279 39.008C122.279 41.3973 122.748 43.2106 123.687 44.448C124.668 45.6853 126.161 46.4533 128.167 46.752C128.081 46.368 128.017 45.9626 127.975 45.536C127.932 45.1093 127.911 44.6826 127.911 44.256C127.911 41.824 128.252 39.584 128.935 37.536C129.617 35.488 130.535 33.7173 131.687 32.224C132.839 30.7306 134.161 29.5786 135.655 28.768C137.191 27.9146 138.769 27.488 140.391 27.488C141.969 27.488 143.185 28.0426 144.039 29.152C144.892 30.2613 145.319 31.5413 145.319 32.992C145.319 34.8693 144.807 36.6826 143.783 38.432C142.759 40.1386 141.436 41.6746 139.815 43.04C138.236 44.3626 136.487 45.4506 134.567 46.304C132.647 47.1146 130.812 47.5413 129.063 47.584C129.191 48.9493 129.425 50.2293 129.767 51.424C130.151 52.6186 130.343 53.3226 130.343 53.536C130.343 53.664 130.236 53.728 130.023 53.728C129.852 53.728 129.724 53.536 129.639 53.152C129.596 52.768 129.404 52.0426 129.063 50.976C128.849 50.3786 128.679 49.76 128.551 49.12C128.465 48.5226 128.38 48.0107 128.295 47.584C126.844 47.584 125.479 47.392 124.199 47.008C122.961 46.5813 121.873 45.984 120.935 45.216C119.996 44.448 119.249 43.488 118.695 42.336C118.183 41.1413 117.927 39.776 117.927 38.24C117.927 35.936 118.503 33.8453 119.655 31.968C120.849 30.048 122.364 28.384 124.199 26.976C126.033 25.5253 128.039 24.352 130.215 23.456C132.391 22.5173 134.481 21.8986 136.487 21.6V21.472ZM154.023 4.70398C154.023 3.33865 153.041 2.65598 151.079 2.65598C150.353 2.65598 149.585 2.78398 148.775 3.03998C148.007 3.25331 147.239 3.53064 146.471 3.87198C145.703 4.21331 144.956 4.59731 144.231 5.02398C143.505 5.45065 142.844 5.85598 142.247 6.23998C142.972 7.05065 143.655 7.81865 144.295 8.54398C144.935 9.22665 145.255 9.61065 145.255 9.69598C145.255 9.95198 145.148 10.08 144.935 10.08C144.849 10.08 144.743 10.016 144.615 9.88798C144.529 9.75998 144.38 9.56798 144.167 9.31198C143.953 9.05598 143.633 8.71465 143.207 8.28798C142.823 7.81865 142.289 7.26398 141.607 6.62398C139.729 7.98931 138.151 9.56798 136.871 11.36C135.591 13.1093 134.951 15.072 134.951 17.248C136.871 16.9493 138.94 16.3946 141.159 15.584C143.377 14.7733 145.447 13.792 147.367 12.64C149.287 11.488 150.865 10.2293 152.103 8.86398C153.383 7.45598 154.023 6.06931 154.023 4.70398ZM118.183 9.05598C118.183 10.5493 118.481 11.8293 119.079 12.896C119.719 13.9626 120.551 14.8586 121.575 15.584C122.599 16.2666 123.793 16.7786 125.159 17.12C126.524 17.4613 127.975 17.632 129.511 17.632C129.852 17.632 130.215 17.632 130.599 17.632C130.983 17.5893 131.367 17.5466 131.751 17.504C131.708 17.2053 131.665 16.928 131.623 16.672C131.623 16.3733 131.623 16.0533 131.623 15.712C131.623 14.5173 131.857 13.408 132.327 12.384C132.839 11.3173 133.5 10.336 134.311 9.43998C135.121 8.54398 136.017 7.75465 136.999 7.07198C137.98 6.34665 138.961 5.72798 139.943 5.21598C138.364 3.97865 136.636 3.01864 134.759 2.33598C132.881 1.61065 130.94 1.24798 128.935 1.24798C127.911 1.24798 126.759 1.41865 125.479 1.75998C124.241 2.05865 123.068 2.52798 121.959 3.16798C120.892 3.80798 119.996 4.61865 119.271 5.59998C118.545 6.58131 118.183 7.73331 118.183 9.05598ZM144.551 32.992C144.551 31.6693 144.209 30.6026 143.527 29.792C142.844 28.9386 141.82 28.512 140.455 28.512C139.175 28.512 137.852 29.0666 136.487 30.176C135.121 31.2426 133.884 32.608 132.775 34.272C131.665 35.936 130.748 37.7493 130.023 39.712C129.297 41.6746 128.935 43.5307 128.935 45.28C128.935 45.5787 128.935 45.856 128.935 46.112C128.935 46.368 128.956 46.6026 128.999 46.816C130.663 46.9013 132.412 46.56 134.247 45.792C136.081 44.9813 137.767 43.9146 139.303 42.592C140.839 41.2693 142.097 39.776 143.079 38.112C144.06 36.448 144.551 34.7413 144.551 32.992Z" fill="white"/>
</svg>
