<svg width="105" height="91" viewBox="0 0 105 91" fill="none" xmlns="http://www.w3.org/2000/svg">
<path d="M69.0309 74.4272L64.7362 76.0975L64.4277 72.0085C62.1101 72.5477 59.7274 72.9314 57.2794 73.1593C54.85 73.3348 52.4399 73.1634 50.0491 72.6449C49.3354 74.2803 48.4598 75.888 47.4224 77.4682C46.4035 78.996 45.2014 80.4592 43.8163 81.8578C42.4311 83.2564 40.8415 84.5536 39.0475 85.7491C37.2536 86.9447 35.263 87.9678 33.076 88.8184C31.0082 89.6226 28.8909 90.1293 26.7241 90.3384C24.5757 90.4951 22.5184 90.3448 20.5522 89.8876C18.586 89.4303 16.7917 88.6799 15.1694 87.6363C13.5869 86.5772 12.3169 85.2156 11.3595 83.5513C10.1893 81.5173 9.65443 79.5302 9.75495 77.5903C9.83419 75.6134 10.3208 73.7948 11.2149 72.1346C12.0877 70.4374 13.2393 68.9712 14.6698 67.7359C16.1188 66.4482 17.6188 65.5028 19.1696 64.8997C20.9988 64.1882 22.7476 63.8023 24.4159 63.7417C26.063 63.6442 27.5871 63.7982 28.9883 64.2037C30.3895 64.6092 31.6159 65.2184 32.6675 66.0313C33.7192 66.8443 34.5641 67.8055 35.2024 68.915C36.0322 70.3574 36.3991 71.7987 36.3031 73.239C36.2469 74.6639 35.8763 76.0074 35.1912 77.2695C34.4848 78.4947 33.5435 79.6075 32.3673 80.6081C31.1698 81.5717 29.8751 82.3241 28.4833 82.8654C27.2506 83.3449 26.4539 83.6095 26.0933 83.6592C25.7724 83.6935 25.5587 83.6182 25.4523 83.4333C25.3247 83.2114 25.3801 83.0541 25.6187 82.9613C25.7778 82.8994 25.9979 82.8591 26.279 82.8402C26.5787 82.769 26.987 82.6328 27.5039 82.4317C29.0547 81.8286 30.4197 81.0714 31.5987 80.1603C32.7962 79.1967 33.719 78.1363 34.3671 76.979C35.0152 75.8218 35.3596 74.6017 35.4001 73.3187C35.4193 71.9987 35.0566 70.6916 34.3119 69.3971C33.2268 67.511 31.5684 66.2778 29.3367 65.6975C27.1448 65.1017 24.5378 65.3915 21.5156 66.5669C19.8057 67.2319 18.2462 68.2006 16.8369 69.4728C15.4064 70.708 14.2733 72.1218 13.4375 73.7141C12.6202 75.254 12.1691 76.9229 12.0843 78.721C12.0392 80.5036 12.5061 82.2455 13.4848 83.9467C14.272 85.3151 15.3838 86.4441 16.8202 87.3337C18.275 88.1709 19.8834 88.7673 21.6452 89.123C23.4071 89.4787 25.2415 89.5799 27.1484 89.4266C29.0554 89.2733 30.8439 88.8719 32.5141 88.2223C36.5303 86.6603 39.8575 84.6194 42.4957 82.0999C45.1523 79.5279 47.3663 76.3133 49.1377 72.4563C46.1365 71.7227 43.3563 70.6542 40.7972 69.2509C38.238 67.8475 36.2243 65.8699 34.7563 63.3181C33.9052 61.8388 33.4297 60.4623 33.3296 59.1887C33.248 57.8627 33.4319 56.6598 33.8812 55.5798C34.3305 54.4999 34.9657 53.574 35.7868 52.8021C36.6477 52.0147 37.615 51.4122 38.6886 50.9946C40.0406 50.4688 41.4607 50.188 42.9487 50.1524C44.4552 50.0643 45.9581 50.1813 47.4572 50.5034C48.9352 50.7885 50.3682 51.2494 51.7565 51.8862C53.1845 52.5075 54.4854 53.2462 55.6591 54.1022C56.9523 49.7523 58.3019 45.9235 59.7081 42.6158C61.1143 39.3082 62.4562 36.5233 63.734 34.2613C65.0515 31.9838 66.2545 30.2261 67.3428 28.9882C68.4098 27.7133 69.2814 26.9443 69.9574 26.6814C70.1562 26.6041 70.3301 26.6949 70.479 26.9538C70.5216 27.0277 70.4532 27.4164 70.2739 28.1197C70.0733 28.7861 69.8228 29.7887 69.5224 31.1275C69.2618 32.4508 68.9925 34.1396 68.7144 36.1939C68.4151 38.2111 68.1773 40.5892 68.0011 43.3279C67.8322 45.6565 67.7322 47.9357 67.7011 50.1655C67.7097 52.3798 67.7382 54.5863 67.7867 56.7851C67.8748 58.9685 67.9737 61.1703 68.0831 63.3907C68.2111 65.5586 68.2993 67.7419 68.3477 69.9408C69.1827 69.616 69.9646 69.1987 70.6933 68.689C71.4617 68.1639 72.2274 67.5493 72.9903 66.8453C73.6551 66.2246 74.1702 65.6396 74.5354 65.0902C74.8793 64.5039 75.1451 63.9932 75.3328 63.5581C75.5603 63.1076 75.7202 62.7512 75.8126 62.489C75.8838 62.1897 75.9592 62.0246 76.0387 61.9937C76.2375 61.9164 76.3901 61.9702 76.4965 62.1551C76.5603 62.266 76.4813 62.6362 76.2594 63.2656C76.0773 63.8795 75.6978 64.6155 75.1209 65.4735C74.5226 66.2945 73.6752 67.1899 72.5785 68.1595C71.5215 69.1137 70.1594 69.9603 68.4921 70.6992L69.0309 74.4272ZM61.1176 61.6871C60.4793 60.5776 59.6898 59.459 58.7491 58.3314C57.8269 57.1513 56.9528 56.224 56.1268 55.5496C55.1256 58.2924 54.2253 61.0413 53.4257 63.7962C52.6261 66.5511 51.6037 69.2569 50.3584 71.9137C52.7093 72.4476 55.1088 72.6005 57.5568 72.3726C60.0047 72.1446 62.2469 71.7704 64.2833 71.25C64.0315 69.6281 63.6696 68.0264 63.1978 66.4448C62.7046 64.8263 62.0112 63.2404 61.1176 61.6871ZM64.252 66.3742C63.6509 60.0003 63.7262 53.7028 64.4781 47.4815C65.2087 41.2232 66.6797 35.1523 68.891 29.2686L68.7078 29.204C68.0744 29.5409 67.2589 30.4917 66.2612 32.0564C65.282 33.5687 64.2253 35.4959 63.0909 37.8379C61.9352 40.143 60.7694 42.7688 59.5934 45.7154C58.436 48.6095 57.3729 51.6253 56.4041 54.7628C57.5594 55.6713 58.5463 56.6678 59.3649 57.7524C60.2233 58.8216 60.9717 59.9109 61.61 61.0204C62.5887 62.7216 63.4083 64.4847 64.0689 66.3097L64.252 66.3742ZM37.5973 63.4351C39.0441 65.95 40.8136 67.8415 42.9057 69.1097C45.0164 70.3254 47.1769 71.2049 49.3873 71.7483C50.6511 69.0391 51.7226 66.2915 52.6016 63.5057C53.4992 60.6674 54.4366 57.8136 55.4137 54.9444C54.3251 54.2363 53.2087 53.6069 52.0646 53.0562C50.939 52.4531 49.7778 51.9995 48.5811 51.6956C47.4241 51.3762 46.2421 51.2249 45.0353 51.2417C43.8284 51.2585 42.6086 51.5066 41.3759 51.9861C40.342 52.3882 39.4038 52.9567 38.5614 53.6917C37.7375 54.3742 37.1194 55.203 36.7071 56.178C36.2947 57.153 36.128 58.2588 36.2068 59.4954C36.3253 60.7165 36.7888 62.0297 37.5973 63.4351Z" fill="white"/>
<path d="M24.6769 3.66678V0.555664H21.4325V3.71122C17.3436 4.02233 15.388 5.84455 15.388 10.5557V24.2446C15.388 28.689 16.8991 30.1557 21.4325 30.3334V33.0001H24.6769V30.289C28.7658 29.9779 30.7214 28.1557 30.7214 23.4446V9.75566C30.7214 5.31122 29.2547 3.84455 24.6769 3.66678ZM18.6325 23.4001V9.889C18.6325 7.71122 18.9436 6.60011 21.4325 6.37789V27.6223C19.2991 27.3557 18.6325 26.4223 18.6325 23.4001ZM27.4769 24.1112C27.4769 26.289 27.2102 27.4446 24.6769 27.6223V6.37789C26.8102 6.60011 27.4769 7.489 27.4769 10.6001V24.1112Z" fill="black"/>
<path d="M43.3958 0.555664H40.2403L35.9736 27.5334H35.4403L36.0625 17.2668L36.3736 0.555664H33.1736V33.0001H36.3292L40.5958 6.02233H41.1292L40.5069 16.289L40.2403 33.0001H43.3958V0.555664Z" fill="black"/>
<path d="M55.5901 0.555664H47.4568C47.4568 21.1779 47.3234 27.8001 44.7457 29.5779V33.0001H48.0345C48.7012 27.8446 48.6568 21.3112 48.6568 3.44455H52.2568V33.0001H55.5901V0.555664Z" fill="black"/>
<path d="M61.6618 12.1112H61.5729V0.555664H58.2396V33.0001H62.2396C66.0618 33.0001 68.284 31.4446 68.284 27.4001V18.1112C68.284 13.7557 65.2618 12.1112 61.6618 12.1112ZM64.9507 26.289C64.9507 29.1779 64.1507 29.9779 61.9285 29.9779H61.5729V15.1334H62.2396C64.4174 15.1334 64.9507 16.1112 64.9507 17.6668V26.289Z" fill="black"/>
<path d="M80.9349 33.0001H84.3571L83.9127 0.555664H81.1127L78.5349 21.5779H78.046L74.4904 0.555664H71.1571L70.7127 33.0001H74.2238L73.0238 9.80011H73.4682L77.1571 30.7779H78.1793L81.0238 9.80011H81.5127L80.9349 33.0001Z" fill="black"/>
<path d="M9.11485 44.5557L7.29262 63.2668H6.80373L5.82595 54.3779L4.31484 44.5557H0.714844L5.51484 67.5779H6.84818L1.91484 77.0001H6.09262L12.9815 44.5557H9.11485Z" fill="black"/>
<path d="M29.5879 47.7557L30.3435 47.5334V44.5557H26.3435L22.9213 58.7334L22.4768 58.6446L23.5435 48.1557V44.5557H20.2102V48.1557L21.2768 58.6446L20.8324 58.7334L17.4102 44.5557H13.4102V47.5334L14.1657 47.7557C16.3435 48.3779 17.7213 51.2223 19.0102 55.6223C19.4102 57.0446 19.7213 58.1557 19.899 59.1779L19.5435 59.5334L15.899 59.1779L13.6324 77.0001H17.2324L18.2102 64.4223C18.4768 61.0446 18.8768 60.289 20.1213 60.4668C20.1657 61.0446 20.2102 61.6223 20.2102 62.2446V77.0001H23.5435V62.2446C23.5435 61.6223 23.5879 61.0446 23.6768 60.4668C24.9213 60.289 25.2768 61.089 25.5435 64.4223L26.5213 77.0001H30.1213L27.8546 59.1779L24.2102 59.5334L23.899 59.2223C24.1213 58.2001 24.3879 57.0446 24.7435 55.6223C25.8102 51.2223 27.4102 48.3779 29.5879 47.7557Z" fill="black"/>
<path d="M77.8971 48.4668C77.8971 47.489 77.186 47.1334 75.3194 47.1334C74.1638 47.1334 73.8971 48.1112 73.8971 49.6668V70.7334C73.8971 73.9334 74.8305 74.4223 75.7194 74.4223C76.8749 74.4223 77.3194 72.7334 77.4082 69.889L77.5416 64.6446H78.1638L78.2971 70.0223C78.386 74.2446 77.0971 77.4445 74.4305 77.4445C71.8971 77.4445 70.5638 76.0668 70.5638 72.2446V50.1112C70.5638 45.7557 72.7416 44.1112 75.3194 44.1112C77.6305 44.1112 78.7416 45.489 78.7416 48.2446C78.7416 50.5112 78.6527 53.6223 77.8527 58.1112H74.4749C77.586 51.4446 77.8971 49.7112 77.8971 48.4668Z" fill="black"/>
<path d="M85.8272 77.4445C82.7605 77.4445 81.0716 76.0668 81.0716 72.2446V50.1112C81.0716 45.7557 83.4716 44.1112 86.3605 44.1112C89.4716 44.1112 91.1161 45.489 91.1161 49.3112V71.4445C91.1161 75.8001 88.7161 77.4445 85.8272 77.4445ZM86.0494 47.1334C84.7161 47.1334 84.405 48.1112 84.405 49.6668V70.7334C84.405 73.9334 85.2938 74.4223 86.3605 74.4223C87.5161 74.4223 87.7827 73.4445 87.7827 71.889V50.8223C87.7827 47.6223 86.9383 47.1334 86.0494 47.1334Z" fill="black"/>
<path d="M102.211 59.7112L99.2336 59.9779V59.5334C101.589 58.3334 103.367 56.6446 103.367 53.2223V50.1557C103.367 46.1112 101.322 44.5557 97.7669 44.5557H93.7669V77.0001H97.7669C101.722 77.0001 104.034 75.4446 104.034 71.4001V66.289C104.034 63.2223 103.545 60.689 102.211 59.7112ZM97.4558 47.5779C99.3669 47.5779 100.034 48.3779 100.034 51.2668V55.889C100.034 57.4446 99.6336 58.5112 97.9447 59.2668L97.1003 59.6223V47.5779H97.4558ZM100.7 70.289C100.7 73.1779 99.8558 73.9779 97.4558 73.9779H97.1003V61.0446C97.4558 60.7779 97.8558 60.6001 98.3447 60.6001C99.9003 60.6001 100.7 61.5334 100.7 63.5334V70.289Z" fill="black"/>
</svg>
