<svg width="216" height="60" viewBox="0 0 216 60" fill="none" xmlns="http://www.w3.org/2000/svg">
<path d="M38.2333 55.3924C37.8003 54.8105 37.6025 54.2279 37.6399 53.6445C37.69 53.0078 38.0581 52.5169 38.7442 52.1718C39.3922 51.8458 40.0849 51.7561 40.8225 51.9026C41.5346 52.0148 42.1071 52.3619 42.5401 52.9438C42.8966 53.4231 43.0688 53.8304 43.0565 54.1659C43.0187 54.4671 43.1017 54.7547 43.3055 55.0285C43.713 55.5762 44.3364 55.9213 45.1756 56.0636C46.0275 56.1526 47.1205 55.8615 48.4546 55.1905C50.1317 54.3469 51.478 53.2698 52.4934 51.9593C53.5215 50.5954 54.2952 49.1008 54.8144 47.4754C55.3717 45.8308 55.7128 44.1068 55.8377 42.3034C55.9753 40.4466 56.0048 38.6207 55.9263 36.8255C55.8223 34.9961 55.6548 33.2222 55.4238 31.5037C55.231 29.7661 55.0573 28.1599 54.9029 26.6852C54.7229 25.0352 54.6381 23.2667 54.6484 21.3798C54.6588 19.4929 54.7709 17.6019 54.9846 15.7067C55.2365 13.7924 55.6093 11.935 56.1028 10.1343C56.6345 8.31444 57.2936 6.66575 58.08 5.18822C55.9697 5.30886 53.9869 5.67117 52.1315 6.27516C50.3142 6.85997 48.6813 7.51666 47.2329 8.24523C45.8989 8.91628 44.6855 9.57363 43.593 10.2173C42.5386 10.8417 41.5478 11.5518 40.6207 12.3474C42.1596 12.7965 43.489 13.492 44.609 14.434C45.7415 15.3226 46.7281 16.3317 47.5686 17.4613C48.9439 19.3098 49.8555 21.415 50.3034 23.7771C50.7259 26.1049 50.7288 28.432 50.3121 30.7585C49.87 33.0507 48.9954 35.1842 47.6884 37.1588C46.3559 39.0992 44.6224 40.6062 42.4879 41.6799C41.6494 42.1017 40.7598 42.3845 39.8192 42.5284C38.8786 42.6722 37.9568 42.6654 37.054 42.508C36.1257 42.3164 35.2353 41.9645 34.3829 41.4525C33.505 40.9062 32.7095 40.1538 31.9963 39.1953C31.0285 37.8945 30.3783 36.4575 30.0458 34.8842C29.7133 33.3109 29.6223 31.7102 29.7729 30.082C29.936 28.4005 30.2836 26.7204 30.8154 25.0416C31.3854 23.3436 32.1017 21.7366 32.9644 20.2208C33.8015 18.6707 34.7405 17.2575 35.7815 15.9812C36.8224 14.7049 37.8826 13.6307 38.9621 12.7583C37.6144 12.6366 36.2287 12.7455 34.8053 13.0852C33.3818 13.4249 32.1174 13.8727 31.012 14.4287C28.8394 15.5216 27.0486 16.9869 25.6397 18.8246C24.2054 20.628 23.2163 22.678 22.6724 24.9743C22.331 26.4162 22.1674 27.7451 22.1816 28.9611C22.1958 30.177 22.267 31.2232 22.3953 32.0995C22.498 32.9416 22.6069 33.616 22.722 34.1226C22.837 34.6293 22.8374 34.9114 22.723 34.9689C22.6468 35.0072 22.5641 35.0018 22.4751 34.9525C22.386 34.9032 22.3288 34.8614 22.3033 34.8272C22.1505 34.6218 21.9718 34.1001 21.7674 33.2621C21.5375 32.3899 21.3963 31.3554 21.344 30.1586C21.3043 28.9084 21.3725 27.5569 21.5487 26.1041C21.763 24.632 22.2125 23.1593 22.8972 21.6859C23.5564 20.1783 24.5018 18.7384 25.7333 17.3662C27.0029 15.9749 28.6477 14.7712 30.6679 13.7551C32.1163 13.0265 33.6922 12.5396 35.3955 12.2944C37.1369 12.03 38.5734 11.9895 39.7051 12.1729C40.5941 11.3964 41.6674 10.6213 42.9251 9.84761C44.1954 9.02046 45.4785 8.28095 46.7745 7.62907C48.7946 6.61291 50.8469 5.81584 52.9311 5.23785C54.9899 4.62564 56.852 4.27702 58.5173 4.19202C59.0122 3.37862 59.4244 2.63026 59.7541 1.94696C60.0583 1.22942 60.3629 0.793959 60.6678 0.640576C60.8203 0.563885 60.9602 0.611118 61.0876 0.782272C61.2149 0.953427 61.0883 1.34643 60.7076 1.96127C60.3015 2.54188 59.8956 3.26354 59.4898 4.12623C61.9435 4.11511 64.2833 4.58463 66.5094 5.53477C68.748 6.43152 70.5678 7.82125 71.9686 9.70395C72.9364 11.0047 73.4785 12.4021 73.5947 13.896C73.711 15.3899 73.5158 16.8523 73.009 18.2833C72.5149 19.6608 71.741 20.9439 70.6873 22.1325C69.6717 23.302 68.4968 24.2223 67.1628 24.8933C66.6291 25.1617 66.0128 25.3542 65.3137 25.4706C64.6527 25.5679 64.0171 25.6288 63.4069 25.6535C62.8348 25.659 62.3199 25.6358 61.8621 25.5838C61.4425 25.5126 61.1945 25.4257 61.1181 25.323C60.9907 25.1518 61.0414 25.0087 61.2701 24.8937C61.3082 24.8745 61.4735 24.8855 61.766 24.9265C62.0965 24.9484 62.478 24.9682 62.9103 24.986C63.3425 25.0038 63.8002 24.9853 64.2832 24.9305C64.8044 24.8565 65.3127 24.6949 65.8082 24.4456C67.2185 23.7362 68.2535 22.7688 68.913 21.5432C69.6107 20.2984 69.9905 18.9784 70.0523 17.5831C70.1523 16.1686 69.9534 14.7397 69.4558 13.2965C68.9963 11.8341 68.3463 10.5381 67.5058 9.40848C66.538 8.1077 65.3353 7.0897 63.8978 6.35448C62.4984 5.60008 60.896 5.20652 59.0907 5.17377C58.4313 6.54038 58.0264 8.10826 57.876 9.87742C57.7002 11.6123 57.6835 13.526 57.826 15.6182C57.9429 17.6763 58.1364 19.9076 58.4064 22.3121C58.6509 24.6823 58.8828 27.1765 59.1022 29.7946C59.3471 32.4469 59.3186 35.1191 59.0168 37.8112C58.7277 40.4499 58.1333 42.9599 57.2336 45.3411C56.3466 47.669 55.1542 49.7977 53.6564 51.7271C52.1713 53.6032 50.3233 55.0972 48.1126 56.2092C47.2359 56.6502 46.3146 56.996 45.3487 57.2467C44.4464 57.5124 43.5439 57.637 42.6412 57.6207C41.7767 57.5851 40.9628 57.4065 40.1996 57.0848C39.4491 56.7096 38.7936 56.1455 38.2333 55.3924ZM32.5296 38.6448C33.7266 40.2537 35.0946 41.2826 36.6335 41.7316C38.185 42.1273 39.704 41.9512 41.1906 41.2035C43.0583 40.264 44.5439 38.8111 45.6475 36.8447C46.7257 34.844 47.4222 32.6826 47.7372 30.3602C48.0648 27.9844 47.9919 25.5984 47.5185 23.2021C47.0451 20.8059 46.1462 18.7178 44.8218 16.9377C44.1342 16.0135 43.4085 15.179 42.6447 14.4341C41.881 13.6893 40.9777 13.1793 39.9349 12.9041C37.9154 14.4844 36.1634 16.4242 34.6788 18.7233C33.2323 21.0033 32.1546 23.3565 31.4457 25.783C30.7367 28.2094 30.4473 30.566 30.5772 32.8528C30.7072 35.1395 31.358 37.0702 32.5296 38.6448Z" fill="white"/>
<path d="M5.51465 55.3113C2.44798 55.3113 0.759094 53.9335 0.759094 50.1113V27.9779C0.759094 23.6224 3.15909 21.9779 6.04798 21.9779C9.15909 21.9779 10.8035 23.3557 10.8035 27.1779V49.3113C10.8035 53.6668 8.40354 55.3113 5.51465 55.3113ZM5.73687 25.0002C4.40354 25.0002 4.09243 25.9779 4.09243 27.5335V48.6002C4.09243 51.8002 4.98132 52.289 6.04798 52.289C7.20354 52.289 7.47021 51.3113 7.47021 49.7557V28.689C7.47021 25.489 6.62576 25.0002 5.73687 25.0002Z" fill="black"/>
<path d="M22.5978 22.4224H11.8867V25.3113H15.5756V54.8668H18.9089V25.3113H22.5978V22.4224Z" fill="black"/>
<path d="M45.2596 22.4224H37.1263V54.8668H40.4596V25.3113H45.2596V22.4224Z" fill="black"/>
<path d="M69.8346 51.9779V38.2446H72.9902V37.2668H69.8346V25.3113H74.1902V22.4224H66.5013V54.8668H74.6346V51.9779H69.8346Z" fill="black"/>
<path d="M82.7962 37.2224L86.974 22.4224H83.2407L82.2185 34.8224H81.7296L80.6629 29.089L79.1962 22.4224H75.4629L79.7296 37.9335L75.2851 54.8668H79.0185L80.3962 40.289H80.7962L81.8629 47.3557L83.3296 54.8668H87.0629L82.7962 37.2224Z" fill="black"/>
<path d="M96.5784 54.8668H100.312L94.8895 22.4224H90.4895L92.4006 26.9113L87.5117 54.8668H91.5117L92.0895 45.7557H95.4228L96.5784 54.8668ZM92.1784 44.8668L93.1561 29.5335H93.645L94.4895 38.4224L95.2895 44.8668H92.1784Z" fill="black"/>
<path d="M124.849 22.4224H114.626V54.8668H117.96V25.3113H121.515V54.8668H124.849V22.4224Z" fill="black"/>
<path d="M132.272 55.3113C129.206 55.3113 127.517 53.9335 127.517 50.1113V27.9779C127.517 23.6224 129.917 21.9779 132.806 21.9779C135.917 21.9779 137.561 23.3557 137.561 27.1779V49.3113C137.561 53.6668 135.161 55.3113 132.272 55.3113ZM132.495 25.0002C131.161 25.0002 130.85 25.9779 130.85 27.5335V48.6002C130.85 51.8002 131.739 52.289 132.806 52.289C133.961 52.289 134.228 51.3113 134.228 49.7557V28.689C134.228 25.489 133.384 25.0002 132.495 25.0002Z" fill="black"/>
<path d="M148.627 51.9779V22.4224H140.938V22.8224C140.938 45.7557 140.938 50.0224 139.56 51.9779H138.671V59.6224H139.56L141.205 54.8668H147.427L149.071 59.6224H149.96V51.9779H148.627ZM145.294 51.9779H141.783C142.138 47.1779 142.138 40.2446 142.138 25.3113H145.294V51.9779Z" fill="black"/>
<path d="M159.664 54.8668H163.398L157.975 22.4224H153.575L155.487 26.9113L150.598 54.8668H154.598L155.175 45.7557H158.509L159.664 54.8668ZM155.264 44.8668L156.242 29.5335H156.731L157.575 38.4224L158.375 44.8668H155.264Z" fill="black"/>
<path d="M174.906 22.4224H166.773C166.773 43.0446 166.64 49.6668 164.062 51.4446V54.8668H167.351C168.018 49.7113 167.973 43.1779 167.973 25.3113H171.573V54.8668H174.906V22.4224Z" fill="black"/>
<path d="M180.978 33.9779H180.889V22.4224H177.556V54.8668H181.556C185.378 54.8668 187.6 53.3113 187.6 49.2668V39.9779C187.6 35.6224 184.578 33.9779 180.978 33.9779ZM184.267 48.1557C184.267 51.0446 183.467 51.8446 181.245 51.8446H180.889V37.0002H181.556C183.734 37.0002 184.267 37.9779 184.267 39.5335V48.1557Z" fill="black"/>
<path d="M190.251 54.8668H205.14V22.4224H201.807V51.9779H199.362V22.4224H196.029V51.9779H193.585V22.4224H190.251V54.8668Z" fill="black"/>
<path d="M211.124 51.9779V38.2446H214.279V37.2668H211.124V25.3113H215.479V22.4224H207.79V54.8668H215.924V51.9779H211.124Z" fill="black"/>
</svg>
