<svg width="114" height="112" viewBox="0 0 114 112" fill="none" xmlns="http://www.w3.org/2000/svg">
<path d="M77.1506 29.3692C76.6612 28.5185 76.0248 27.793 75.2414 27.1925C74.458 26.5921 73.5304 26.2061 72.4585 26.0346C70.585 27.2611 68.952 28.7788 67.5594 30.5876C66.1854 32.344 65.106 34.1894 64.3211 36.124C63.576 38.0431 63.173 39.9649 63.1123 41.8894C63.07 43.7614 63.4638 45.4186 64.2935 46.8609C65.0595 48.1923 66.0663 49.1811 67.314 49.8273C68.5617 50.4735 69.8814 50.526 71.2732 49.9846C72.2673 49.598 73.1934 48.9663 74.0515 48.0894C74.9096 47.2126 75.6627 46.1955 76.3109 45.0383C76.9377 43.8441 77.4517 42.5806 77.8529 41.2479C78.2726 39.8627 78.5211 38.4761 78.5986 37.0882C78.7159 35.6849 78.6634 34.3249 78.4412 33.0083C78.1978 31.6547 77.7676 30.4417 77.1506 29.3692ZM65.6389 26.1072C66.9113 25.6123 68.0992 25.3087 69.2025 25.1964C70.3243 25.0317 71.3601 25.0135 72.3099 25.142C73.2559 24.5025 74.2458 23.9817 75.2797 23.5796C77.9042 22.5589 80.2528 22.3696 82.3254 23.0117C84.398 23.6539 86.1471 25.2139 87.5726 27.6918C88.4875 29.2821 89.0487 31.1457 89.2561 33.2826C89.4821 35.3672 89.5106 37.5737 89.3417 39.9023C89.1728 42.2309 88.9045 44.5982 88.5368 47.0041C88.1691 49.4101 87.8476 51.6849 87.5723 53.8285C87.297 55.9722 87.1461 57.9091 87.1196 59.6393C87.1328 61.354 87.4266 62.7106 88.001 63.7091C88.3627 64.3378 88.7267 64.7168 89.093 64.8459C89.4379 64.938 89.9285 64.8603 90.5648 64.6129C91.3203 64.319 92.2011 63.5239 93.2071 62.2274C94.2529 60.9155 95.2463 59.2167 96.1875 57.1308C97.1684 55.0295 98.0693 52.6199 98.8901 49.9019C99.6897 47.147 100.241 44.1719 100.544 40.9765C100.991 36.5937 101.358 32.8755 101.645 29.822C101.932 26.7685 102.155 24.2379 102.314 22.23C102.512 20.2067 102.685 18.646 102.832 17.5479C102.958 16.4129 103.072 15.5539 103.174 14.9709C103.317 14.3724 103.466 13.9975 103.622 13.8462C103.797 13.6425 104.013 13.468 104.27 13.3228L107.157 11.9964L105.184 33.9443C104.979 36.3778 104.713 38.8345 104.388 41.3144C104.081 43.7418 103.841 46.0304 103.666 48.1802C103.531 50.3144 103.5 52.205 103.571 53.8517C103.621 55.4615 103.9 56.6655 104.408 57.4636C104.642 57.8705 104.944 58.1831 105.313 58.4017C105.7 58.5678 106.113 58.5657 106.55 58.3956C107.346 58.0863 108.049 57.4055 108.66 56.3531C109.271 55.3008 109.875 54.0249 110.473 52.5254C111.239 50.6433 111.706 49.1716 111.874 48.1106C112.082 47.034 112.266 46.4648 112.425 46.403C112.703 46.2947 112.896 46.333 113.002 46.5179C113.023 46.5549 112.998 46.723 112.927 47.0222C112.856 47.3215 112.748 47.7256 112.603 48.2346C112.476 48.6912 112.342 49.2187 112.199 49.8172C112.036 50.3787 111.881 50.9139 111.736 51.4229C111.554 52.0368 111.285 52.7526 110.928 53.5703C110.611 54.3725 110.232 55.1532 109.793 55.9124C109.394 56.6561 108.952 57.3258 108.467 57.9216C107.962 58.4803 107.47 58.8525 106.993 59.0381C106.078 59.3938 105.263 59.3716 104.546 58.9716C103.808 58.5345 103.141 57.7982 102.545 56.7626C101.609 55.1354 101.018 53.6002 100.772 52.1572C100.544 50.6618 100.385 49.1169 100.295 47.5225L100.112 47.458C99.9937 48.1829 99.7908 49.099 99.5033 50.2065C99.2159 51.314 98.8397 52.4786 98.3747 53.7004C97.9494 54.9068 97.4447 56.144 96.8604 57.4122C96.3158 58.6649 95.7089 59.8514 95.0395 60.9717C94.3885 62.0395 93.683 62.9701 92.923 63.7636C92.2026 64.5416 91.4448 65.0852 90.6495 65.3946C89.7747 65.7348 88.8383 65.7143 87.8404 65.333C86.8822 64.9363 86.0946 64.2017 85.4776 63.1292C84.584 61.5759 84.0348 59.7755 83.8301 57.7279C83.6439 55.6279 83.6459 53.4322 83.8361 51.1405C84.005 48.8119 84.2733 46.4447 84.641 44.0387C85.0087 41.6328 85.309 39.321 85.5417 37.1034C85.7744 34.8857 85.8523 32.8641 85.7752 31.0384C85.7167 29.1604 85.3364 27.6111 84.6342 26.3907C84.1662 25.577 83.5936 24.9624 82.9166 24.5469C82.2183 24.0943 81.4844 23.7914 80.7149 23.6381C79.9454 23.4848 79.1496 23.4549 78.3275 23.5483C77.5053 23.6418 76.7364 23.8277 76.0206 24.1061C75.5832 24.2762 75.1365 24.4726 74.6806 24.6951C74.2645 24.9023 73.8391 25.1356 73.4045 25.3951C74.6623 25.7206 75.7467 26.2945 76.6578 27.1169C77.5688 27.9393 78.3329 28.8867 78.9499 29.9592C79.9073 31.6235 80.4792 33.5056 80.6654 35.6055C80.87 37.6531 80.6914 39.6687 80.1294 41.6523C79.5674 43.636 78.6378 45.4458 77.3405 47.0818C76.0219 48.6808 74.3486 49.8747 72.3206 50.6635C70.4119 51.4058 68.7329 51.4478 67.2836 50.7895C65.813 50.0943 64.631 48.97 63.7373 47.4167C62.8012 45.7894 62.3528 43.995 62.3923 42.0336C62.4105 40.0351 62.8014 38.0502 63.565 36.0786C64.3286 34.1071 65.3868 32.2246 66.7396 30.4313C68.1321 28.6224 69.6842 27.091 71.3958 25.8369C69.8014 25.6876 68.0101 25.9997 66.0218 26.7729C63.795 27.639 61.8859 29.0151 60.2946 30.9013C58.7217 32.735 57.5711 34.8797 56.8427 37.3354C56.093 39.7541 55.7919 42.3604 55.9394 45.1543C56.0868 47.9482 56.7767 50.7122 58.009 53.4463C58.2458 53.9425 58.2648 54.2293 58.066 54.3067C57.8672 54.384 57.7053 54.3564 57.5804 54.224C57.4953 54.076 57.389 53.8911 57.2613 53.6692C57.1124 53.4103 56.9287 53.0065 56.7104 52.4578C56.5105 51.8567 56.3093 51.2108 56.1067 50.5203C55.904 49.8297 55.7199 49.0866 55.5542 48.2912C55.3885 47.4957 55.2839 46.7217 55.2403 45.9693C55.0782 43.9957 55.1667 41.9926 55.5058 39.9598C55.8449 37.9271 56.4495 36.0174 57.3194 34.2308C58.1682 32.4072 59.2851 30.7961 60.6703 29.3974C62.0342 27.9618 63.6904 26.8651 65.6389 26.1072ZM96.6146 0.142939C97.0521 -0.0271847 97.4752 -0.0107102 97.884 0.192363C98.2715 0.358452 98.5397 0.570937 98.6887 0.829818C99.0078 1.38457 99.1892 2.03816 99.2327 2.7906C99.255 3.50606 99.1886 4.27868 99.0333 5.10845C98.8568 5.90123 98.6192 6.6725 98.3206 7.42226C98.022 8.17201 97.6901 8.82157 97.3249 9.37094C96.8062 10.161 96.0581 11.0177 95.0807 11.9409C94.1218 12.8117 92.8669 13.5487 91.3161 14.1519C90.4015 14.5076 89.4536 14.7631 88.4724 14.9184C87.5097 15.0213 86.6038 15.0116 85.7548 14.8892C84.8845 14.7298 84.091 14.4501 83.3742 14.05C82.6361 13.6129 82.065 13.0431 81.6607 12.3404C81.299 11.7117 81.1695 11.1058 81.272 10.5228C81.3931 9.88738 81.8115 9.43047 82.5273 9.15208C83.2033 8.88916 83.8969 8.86832 84.6081 9.08954C85.298 9.27378 85.8239 9.68027 86.1856 10.309C86.4834 10.8267 86.6074 11.2537 86.5575 11.5899C86.4864 11.8892 86.5359 12.1867 86.7061 12.4826C87.0465 13.0743 87.5525 13.4885 88.2239 13.7252C88.9351 13.9465 90.1166 13.7585 91.7682 13.1614C92.2056 12.9913 92.7013 12.7532 93.2552 12.4473C93.8091 12.1413 94.3205 11.7614 94.7893 11.3075C95.2369 10.8167 95.622 10.2595 95.9446 9.63621C96.246 8.97589 96.3934 8.21706 96.3868 7.35972C96.4071 6.71823 96.2641 6.00445 95.9578 5.21839C95.6303 4.39535 95.3149 3.63551 95.0114 2.93888C94.6441 2.1313 94.6658 1.53452 95.0763 1.14855C95.5054 0.71013 96.0182 0.374926 96.6146 0.142939Z" fill="white"/>
<path d="M26.9583 63H30.3806L29.9361 30.5555H27.1361L24.5583 51.5777H24.0694L20.5139 30.5555H17.1806L16.7361 63H20.2472L19.0472 39.7999H19.4917L23.1806 60.7777H24.2028L27.0472 39.7999H27.5361L26.9583 63Z" fill="black"/>
<path d="M40.551 63H44.2844L38.8622 30.5555H34.4622L36.3733 35.0444L31.4844 63H35.4844L36.0622 53.8888H39.3955L40.551 63ZM36.151 53L37.1288 37.6666H37.6177L38.4622 46.5555L39.2622 53H36.151Z" fill="black"/>
<path d="M55.7932 30.5555H47.6599C47.6599 51.1777 47.5266 57.8 44.9488 59.5777V63H48.2377C48.9043 57.8444 48.8599 51.3111 48.8599 33.4444H52.4599V63H55.7932V30.5555Z" fill="black"/>
<path d="M61.8649 42.1111H61.776V30.5555H58.4427V63H62.4427C66.2649 63 68.4872 61.4444 68.4872 57.4V48.1111C68.4872 43.7555 65.4649 42.1111 61.8649 42.1111ZM70.2649 30.5555V63H73.5983V30.5555H70.2649ZM65.1538 56.2888C65.1538 59.1777 64.3538 59.9777 62.1316 59.9777H61.776V45.1333H62.4427C64.6205 45.1333 65.1538 46.1111 65.1538 47.6666V56.2888Z" fill="black"/>
<path d="M4.32188 74.1111C2.01077 74.1111 0.899658 75.4888 0.899658 78.2444C0.899658 80.5111 0.988544 82.2888 1.78854 86.7777H5.16632C2.05521 80.1111 1.7441 79.7111 1.7441 78.4666C1.7441 77.4888 2.23299 77.1333 3.12188 77.1333C5.25521 77.1333 5.7441 78.1111 5.7441 79.6666V90.1111H2.1441V90.9999H5.7441V100.733C5.7441 103.933 4.81077 104.422 3.92188 104.422C2.76632 104.422 2.32188 102.733 2.23299 99.8888L2.09966 94.6444H1.47744L1.3441 100.022C1.25521 104.244 2.5441 107.444 5.21077 107.444C7.7441 107.444 9.07743 106.067 9.07743 102.244V80.1111C9.07743 75.7555 6.89966 74.1111 4.32188 74.1111Z" fill="black"/>
<path d="M21.5852 77.7999L22.563 77.5333V74.5555H18.563L14.4741 88.7333L14.0297 88.6444L15.0964 78.1555V74.5555H11.763V107H15.0964V92.2444C15.0964 91.6222 15.1408 91.0444 15.2297 90.4666C16.4741 90.2888 16.8741 91.0444 17.3186 94.4222L18.963 107H22.563L19.6297 89.1777L15.763 89.5333L15.4519 89.2222C15.6741 88.1999 16.0741 87.0444 16.6075 85.6222C18.2964 81.2222 19.1408 78.4666 21.5852 77.7999Z" fill="black"/>
<path d="M30.1512 90.3777L27.7512 90.6444L27.7068 90.2888C29.929 89.8888 31.4846 88.2444 31.4846 84.1111V80.1111C31.4846 75.7555 29.7512 74.1111 27.1734 74.1111C24.8623 74.1111 23.7512 75.4888 23.7512 78.2444C23.7512 80.5111 23.8401 82.7333 24.1957 86.7777H27.3512C24.8623 80.5555 24.5957 79.7111 24.5957 78.4666C24.5957 77.4888 25.0845 77.1333 25.9734 77.1333C28.1068 77.1333 28.1512 78.1111 28.1512 79.6666V86.7777C28.1512 88.9555 27.3068 90.1111 25.8401 90.1111H24.8623V90.9999H25.8401C27.529 90.9999 28.329 92.0666 28.329 94.7777V100.733C28.329 103.933 27.3957 104.422 26.5068 104.422C25.3512 104.422 24.9068 102.733 24.8179 99.8888L24.6846 94.6444H24.0623L23.929 100.022C23.8401 104.244 25.129 107.444 27.7957 107.444C30.329 107.444 31.6623 106.067 31.6623 102.244V96.9999C31.6623 94.0222 31.3957 91.2666 30.1512 90.3777Z" fill="black"/>
<path d="M39.0967 107.444C36.03 107.444 34.3412 106.067 34.3412 102.244V80.1111C34.3412 75.7555 36.7411 74.1111 39.63 74.1111C42.7412 74.1111 44.3856 75.4888 44.3856 79.3111V101.444C44.3856 105.8 41.9856 107.444 39.0967 107.444ZM39.3189 77.1333C37.9856 77.1333 37.6745 78.1111 37.6745 79.6666V100.733C37.6745 103.933 38.5634 104.422 39.63 104.422C40.7856 104.422 41.0523 103.444 41.0523 101.889V80.8222C41.0523 77.6222 40.2078 77.1333 39.3189 77.1333Z" fill="black"/>
<path d="M51.0365 74.5555H47.0365V107H50.3698V97.6666H50.4587C54.0587 97.6666 57.0809 96.0222 57.0809 91.6666V80.1555C57.0809 76.1111 54.8587 74.5555 51.0365 74.5555ZM53.7476 92.1111C53.7476 93.6666 53.2142 94.6444 51.0365 94.6444H50.3698V77.5777H50.7254C52.9476 77.5777 53.7476 78.3777 53.7476 81.2666V92.1111Z" fill="black"/>
<path d="M69.954 104.111V74.5555H66.6207V104.111H63.0651V74.5555H59.7318V107H68.754L70.3984 111.756H71.2873V104.111H69.954Z" fill="black"/>
<path d="M82.8568 74.5555H79.7012L75.4346 101.533H74.9012L75.5234 91.2666L75.8345 74.5555H72.6346V107H75.7901L80.0568 80.0222H80.5901L79.9679 90.2888L79.7012 107H82.8568V74.5555Z" fill="black"/>
<path d="M91.3622 90.3777L88.9622 90.6444L88.9177 90.2888C91.1399 89.8888 92.6955 88.2444 92.6955 84.1111V80.1111C92.6955 75.7555 90.9621 74.1111 88.3844 74.1111C86.0733 74.1111 84.9622 75.4888 84.9622 78.2444C84.9622 80.5111 85.051 82.7333 85.4066 86.7777H88.5621C86.0733 80.5555 85.8066 79.7111 85.8066 78.4666C85.8066 77.4888 86.2955 77.1333 87.1844 77.1333C89.3177 77.1333 89.3622 78.1111 89.3622 79.6666V86.7777C89.3622 88.9555 88.5177 90.1111 87.051 90.1111H86.0733V90.9999H87.051C88.7399 90.9999 89.5399 92.0666 89.5399 94.7777V100.733C89.5399 103.933 88.6066 104.422 87.7177 104.422C86.5622 104.422 86.1177 102.733 86.0288 99.8888L85.8955 94.6444H85.2733L85.1399 100.022C85.051 104.244 86.3399 107.444 89.0066 107.444C91.5399 107.444 92.8733 106.067 92.8733 102.244V96.9999C92.8733 94.0222 92.6066 91.2666 91.3622 90.3777Z" fill="black"/>
<path d="M105.552 107H108.974L108.53 74.5555H105.73L103.152 95.5777H102.663L99.1076 74.5555H95.7743L95.3299 107H98.841L97.641 83.7999H98.0854L101.774 104.778H102.797L105.641 83.7999H106.13L105.552 107Z" fill="black"/>
</svg>
