<svg width="745" height="388" viewBox="0 0 745 388" fill="none" xmlns="http://www.w3.org/2000/svg">
<path d="M113.796 125.825H176.48C223.67 126.977 258.388 134.528 280.633 148.479C302.878 162.429 314 180.219 314 201.848C314 224.245 302.62 241.203 279.861 252.722C257.231 264.241 232.157 270 204.64 270H0V262.513C23.145 262.513 38.3178 258.161 45.5184 249.458C52.8477 240.756 56.5123 226.997 56.5123 208.183V63.8166C56.5123 45.0029 52.8477 31.2445 45.5184 22.5415C38.3178 13.8386 23.145 9.48711 0 9.48711V2H287.576V106.244H281.018C269.703 65.6724 255.173 39.3715 237.429 27.341C219.813 15.1824 189.982 9.10315 147.935 9.10315H113.796V125.825ZM113.796 262.705H171.08C194.611 262.705 213.255 257.074 227.014 245.811C240.772 234.548 247.651 218.166 247.651 196.665C247.651 176.699 240.129 161.213 225.085 150.206C210.169 139.2 188.181 133.696 159.122 133.696H113.796V262.705Z" fill="black"/>
<path d="M352 88.7838C352 112.459 346.963 122.324 335.845 122.324C331.503 122.324 327.681 119.759 323.859 115.814L322.817 116.997L327.16 122.127V146H315V1.97297H326.986V4.14324L322.991 34.1324L324.728 34.527C328.376 4.93242 334.282 0 340.883 0C347.31 0 352 6.11621 352 15.9811V88.7838ZM339.493 89.9676V23.6757C339.493 16.573 337.93 13.4162 334.977 13.4162C331.155 13.4162 327.16 26.8324 327.16 44.9838V105.751C329.418 108.316 331.85 109.697 334.629 109.697C337.93 109.697 339.493 106.935 339.493 89.9676Z" fill="black"/>
<path d="M514.593 225.574C511.165 230.515 506.024 236.531 499.168 243.621C492.312 250.496 484.813 257.264 476.672 263.924C468.745 270.37 460.711 275.956 452.569 280.683C444.642 285.194 437.679 287.45 431.681 287.45C424.825 287.45 420.111 285.517 417.54 281.649C414.969 277.567 413.684 272.303 413.684 265.858C413.684 258.123 415.077 250.496 417.862 242.976C420.647 235.457 424.075 228.259 428.146 221.384C432.216 214.294 436.715 207.526 441.643 201.081C446.571 194.42 451.07 187.975 455.14 181.744C459.211 175.299 462.639 169.175 465.424 163.374C468.209 157.574 469.602 151.88 469.602 146.294C469.602 141.567 468.531 137.485 466.388 134.047C464.246 130.61 461.461 127.924 458.033 125.991C454.819 123.842 451.07 122.338 446.785 121.479C442.5 120.404 438.322 119.867 434.251 119.867C425.039 119.867 414.434 121.908 402.436 125.991C390.438 130.073 379.083 135.659 368.371 142.749C357.659 149.839 348.553 158.218 341.055 167.886C333.771 177.555 330.128 187.867 330.128 198.825C330.128 205.7 332.699 211.286 337.841 215.583C342.983 219.665 348.875 221.706 355.516 221.706C364.515 221.706 374.156 218.806 384.44 213.005C394.723 206.989 404.579 198.395 414.005 187.223C419.361 180.992 423.432 174.762 426.217 168.531C429.003 162.3 431.038 156.822 432.323 152.095C433.823 147.153 434.787 143.179 435.216 140.171C435.858 137.163 436.715 135.659 437.787 135.659C439.286 135.659 440.036 136.518 440.036 138.237C440.036 139.526 439.608 142.641 438.751 147.583C438.108 152.525 436.715 158.325 434.573 164.986C432.43 171.431 429.538 178.307 425.896 185.611C422.254 192.916 417.433 199.684 411.434 205.915C405.436 211.931 398.258 216.98 389.903 221.062C381.547 224.929 371.585 226.863 360.016 226.863C349.518 226.863 341.269 224.177 335.27 218.806C329.271 213.434 326.272 206.989 326.272 199.469C326.272 192.379 327.879 185.397 331.092 178.521C334.52 171.646 339.02 165.093 344.59 158.863C350.16 152.632 356.481 146.938 363.551 141.782C370.835 136.411 378.441 131.899 386.368 128.246C394.295 124.379 402.222 121.371 410.149 119.223C418.29 117.074 425.896 116 432.966 116C446.678 116 457.604 119.438 465.745 126.313C473.887 132.973 477.958 145.005 477.958 162.408C477.958 169.283 476.565 176.158 473.78 183.033C470.995 189.908 467.567 196.784 463.496 203.659C459.425 210.534 454.926 217.302 449.999 223.962C445.071 230.408 440.572 236.746 436.501 242.976C432.43 248.992 429.003 254.686 426.217 260.057C423.432 265.428 422.04 270.37 422.04 274.882C422.04 278.104 423.004 280.36 424.932 281.649C426.86 282.938 429.324 283.583 432.323 283.583C435.751 283.583 440.679 281.972 447.106 278.749C453.748 275.526 460.925 271.122 468.638 265.536C476.565 259.949 484.492 253.397 492.419 245.877C500.56 238.142 507.738 229.763 513.951 220.739C530.019 197.75 544.588 179.381 557.657 165.63C570.94 151.665 582.402 141.03 592.043 133.725C601.684 126.42 609.397 121.694 615.181 119.545C621.18 117.182 625.037 116 626.751 116C628.25 116 629 116.645 629 117.934C629 119.008 627.929 119.975 625.787 120.834C623.644 121.479 620.752 122.553 617.11 124.057C613.467 125.561 609.183 127.817 604.255 130.825C599.327 133.618 593.971 137.592 588.187 142.749C582.616 147.905 576.832 154.566 570.833 162.73C564.834 170.679 558.835 180.562 552.836 192.379C550.051 197.965 546.623 204.84 542.552 213.005C538.482 220.954 534.09 229.441 529.376 238.465C524.663 247.488 519.628 256.727 514.272 266.18C509.13 275.634 503.881 284.657 498.525 293.251C493.383 301.845 488.348 309.687 483.421 316.777C478.493 323.867 473.887 329.561 469.602 333.858C452.248 351.261 432.109 364.581 409.185 373.82C386.475 383.273 362.801 388 338.163 388C328.093 388 318.024 386.604 307.954 383.81C297.885 381.232 288.779 377.15 280.638 371.564C272.496 365.978 265.855 358.995 260.713 350.616C255.571 342.237 253 332.354 253 320.967C253 310.439 255.678 300.771 261.034 291.962C266.605 282.938 273.568 275.204 281.923 268.758C290.493 262.313 299.813 257.264 309.882 253.611C319.952 249.959 329.7 248.133 339.127 248.133C348.553 248.133 357.123 249.422 364.836 252C372.763 254.578 379.405 258.123 384.761 262.635C390.331 267.147 394.616 272.303 397.616 278.104C400.615 283.905 402.115 290.029 402.115 296.474C402.115 305.283 400.079 313.125 396.009 320C391.938 326.875 386.689 332.676 380.262 337.403C373.834 341.915 366.55 345.352 358.409 347.716C350.482 350.079 342.555 351.261 334.628 351.261C331.842 351.261 328.95 351.046 325.951 350.616C322.951 350.186 320.166 349.649 317.595 349.005C315.024 348.36 312.882 347.716 311.168 347.071C309.668 346.427 308.918 345.782 308.918 345.137C308.918 344.063 309.454 343.526 310.525 343.526C311.168 343.526 311.918 343.741 312.775 344.171C313.846 344.6 315.345 345.03 317.274 345.46C319.416 345.889 322.094 346.319 325.308 346.749C328.736 347.179 333.021 347.393 338.163 347.393C344.804 347.393 351.66 346.212 358.73 343.848C365.8 341.485 372.12 338.262 377.691 334.18C383.261 329.883 387.867 324.727 391.51 318.711C395.152 312.695 396.973 305.927 396.973 298.408C396.973 291.103 395.473 284.98 392.474 280.038C389.689 274.882 385.832 270.799 380.904 267.792C376.191 264.784 370.728 262.635 364.515 261.346C358.516 259.842 352.41 259.09 346.197 259.09C336.127 259.09 325.951 260.809 315.667 264.246C305.597 267.684 296.492 272.518 288.351 278.749C280.424 284.98 273.889 292.607 268.747 301.63C263.82 310.654 261.356 320.645 261.356 331.602C261.356 341.27 263.927 349.435 269.069 356.095C274.425 362.755 280.959 368.126 288.672 372.209C296.599 376.506 304.955 379.513 313.739 381.232C322.523 383.166 330.45 384.133 337.52 384.133C354.659 384.133 369.978 381.984 383.475 377.687C396.973 373.605 409.078 367.804 419.79 360.284C430.716 352.98 440.465 344.385 449.034 334.502C457.818 324.404 465.96 313.555 473.458 301.953C480.957 290.136 488.027 277.889 494.669 265.213C501.31 252.322 508.166 239.324 515.236 226.218L514.593 225.574Z" fill="black"/>
<path d="M615.138 224.701L623.522 213.311L632.594 127.466L626.729 117.376L626.867 116H644.781L659.03 194.124L689.911 116H707L706.909 117.376L699.028 127.466L689.819 214.534L695.5 224.701L695.363 226H669.11L669.247 224.701L677.082 214.534L685.65 133.429L652.707 216.445H649.546L634.243 133.887L625.859 213.311L631.861 224.701L631.677 226H615L615.138 224.701Z" fill="black"/>
<path d="M704 98.0001C724.5 98.0001 724.5 77.5201 724.5 66.0001C724.5 77.5201 724.5 98.0001 745 98.0001C724.5 98.0001 724.5 118.48 724.5 130C724.5 118.48 724.5 98.0001 704 98.0001Z" fill="black"/>
<path fill-rule="evenodd" clip-rule="evenodd" d="M721.472 86.1381C723.994 79.6812 724 71.7794 724 66.0001H725C725 71.7794 725.006 79.6812 727.528 86.1381C728.785 89.3546 730.657 92.1863 733.443 94.2159C736.226 96.2433 739.962 97.5001 745 97.5001V98.5001C739.962 98.5001 736.226 99.7569 733.443 101.784C730.657 103.814 728.785 106.645 727.528 109.862C725.006 116.319 725 124.221 725 130H724C724 124.221 723.994 116.319 721.472 109.862C720.215 106.645 718.344 103.814 715.557 101.784C712.774 99.7569 709.038 98.5001 704 98.5001V97.5001C709.038 97.5001 712.774 96.2433 715.557 94.2159C718.344 92.1863 720.215 89.3546 721.472 86.1381ZM709.219 98.0001C711.968 98.5675 714.252 99.5965 716.146 100.976C719.125 103.146 721.097 106.155 722.403 109.498C723.501 112.307 724.134 115.371 724.5 118.406C724.866 115.371 725.5 112.307 726.597 109.498C727.903 106.155 729.875 103.146 732.854 100.976C734.748 99.5965 737.032 98.5675 739.782 98.0001C737.032 97.4326 734.748 96.4036 732.854 95.0242C729.875 92.8539 727.903 89.8455 726.597 86.502C725.5 83.693 724.866 80.6289 724.5 77.594C724.134 80.6289 723.501 83.693 722.403 86.502C721.097 89.8455 719.125 92.8539 716.146 95.0242C714.252 96.4036 711.968 97.4326 709.219 98.0001Z" fill="black"/>
<path d="M323 303.5C342 303.5 342 284.62 342 274C342 284.62 342 303.5 361 303.5C342 303.5 342 322.38 342 333C342 322.38 342 303.5 323 303.5Z" fill="black"/>
<path fill-rule="evenodd" clip-rule="evenodd" d="M339.16 292.55C341.494 286.606 341.5 279.329 341.5 274H342.5C342.5 279.329 342.506 286.606 344.841 292.55C346.003 295.51 347.734 298.113 350.309 299.979C352.881 301.843 356.336 303 361 303V304C356.336 304 352.881 305.157 350.309 307.021C347.734 308.887 346.003 311.49 344.841 314.45C342.506 320.394 342.5 327.671 342.5 333H341.5C341.5 327.671 341.494 320.394 339.16 314.45C337.997 311.49 336.266 308.887 333.691 307.021C331.119 305.157 327.664 304 323 304V303C327.664 303 331.119 301.843 333.691 299.979C336.266 298.113 337.997 295.51 339.16 292.55ZM328.026 303.5C330.498 304.031 332.56 304.967 334.278 306.211C337.046 308.217 338.878 310.997 340.091 314.085C341.074 316.588 341.656 319.31 342 322.015C342.345 319.31 342.927 316.588 343.91 314.085C345.122 310.997 346.954 308.217 349.722 306.211C351.44 304.967 353.503 304.031 355.974 303.5C353.503 302.969 351.44 302.034 349.722 300.789C346.954 298.783 345.122 296.003 343.91 292.915C342.927 290.412 342.345 287.69 342 284.985C341.656 287.69 341.074 290.412 340.091 292.915C338.878 296.003 337.046 298.783 334.278 300.789C332.56 302.034 330.498 302.969 328.026 303.5Z" fill="black"/>
</svg>
