<svg width="894" height="704" viewBox="0 0 894 704" fill="none" xmlns="http://www.w3.org/2000/svg">
<path d="M828.168 98.9832C837.024 112.325 835.033 132.121 823.546 156.667C812.074 181.183 791.201 210.28 762.594 242.077C705.386 305.666 617.329 379.967 511.982 449.896C406.635 519.824 303.973 572.121 223.16 600.15C182.75 614.166 147.831 622.103 120.785 623.156C93.704 624.21 74.6887 618.359 65.8323 605.017C56.976 591.675 58.9671 571.879 70.4537 547.333C81.9257 522.817 102.799 493.72 131.406 461.923C188.614 398.334 276.671 324.033 382.018 254.104C487.365 184.176 590.027 131.879 670.84 103.85C711.25 89.8342 746.169 81.8966 773.215 80.8439C800.296 79.7898 819.311 85.6412 828.168 98.9832Z" stroke="black"/>
</svg>
