<svg width="1279" height="825" viewBox="0 0 1279 825" fill="none" xmlns="http://www.w3.org/2000/svg">
<path d="M1205.62 579.193C1195.69 612.941 1170.43 640.483 1133.17 661.376C1095.91 682.271 1046.68 696.497 988.881 703.613C873.292 717.846 723.544 703.627 567.047 657.559C410.55 611.492 276.98 542.313 187.537 467.726C142.814 430.432 109.142 391.802 89.1438 354.052C69.147 316.305 62.836 279.47 72.77 245.722C82.704 211.975 107.965 184.433 145.224 163.54C182.485 142.645 231.716 128.419 289.511 121.302C405.1 107.07 554.848 121.289 711.345 167.356C867.843 213.423 1001.41 282.603 1090.86 357.189C1135.58 394.483 1169.25 433.114 1189.25 470.863C1209.25 508.61 1215.56 545.446 1205.62 579.193Z" stroke="#36FFC3" stroke-linecap="square"/>
</svg>
